<svg height='100px' width='100px'  fill="#ffa3d7" xmlns="http://www.w3.org/2000/svg" xmlns:xlink="http://www.w3.org/1999/xlink" version="1.1" x="0px" y="0px" viewBox="0 0 100 100" enable-background="new 0 0 100 100" xml:space="preserve"><g><g><path d="M63.583,66.298h1.341c1.138,0,2.059-0.922,2.059-2.059s-0.921-2.059-2.059-2.059h-3.191    c-1.223-2.883-2.283-5.752-3.182-8.612c0.97-0.166,1.71-1.006,1.71-2.023c0-1.136-0.922-2.059-2.059-2.059h-0.825    c-1.323-5.064-2.141-10.108-2.462-15.156c0.661-0.343,1.117-1.025,1.117-1.82c0-0.854-0.521-1.588-1.264-1.899    c-0.006-0.392-0.024-0.784-0.024-1.177v-1.896c0-1.875-1.103-3.484-2.686-4.255v-3.729c0-1.137-0.922-2.059-2.059-2.059    s-2.059,0.922-2.059,2.059v3.73c-1.583,0.77-2.686,2.379-2.686,4.254v1.896c0,0.393-0.019,0.785-0.024,1.177    c-0.742,0.312-1.264,1.045-1.264,1.899c0,0.795,0.456,1.478,1.117,1.82c-0.321,5.048-1.139,10.092-2.462,15.156h-0.825    c-1.137,0-2.058,0.923-2.058,2.059c0,1.018,0.739,1.857,1.709,2.023c-0.898,2.86-1.959,5.729-3.182,8.612h-3.191    c-1.138,0-2.059,0.922-2.059,2.059s0.921,2.059,2.059,2.059h1.341c-2.193,4.614-4.787,9.269-7.816,13.983l3.463,2.225    c3.511-5.464,6.468-10.856,8.899-16.208h18.074c2.432,5.352,5.389,10.744,8.899,16.208l3.463-2.225    C68.37,75.566,65.776,70.912,63.583,66.298z M49.373,27.537c0-0.346,0.281-0.627,0.627-0.627s0.627,0.281,0.627,0.627v2.914    h-1.254V27.537z M49.195,34.568h1.61c0.313,4.976,1.073,9.941,2.31,14.918h-6.23C48.121,44.51,48.881,39.544,49.195,34.568z     M42.738,62.181c1.16-2.868,2.155-5.726,3.01-8.577h8.504c0.854,2.852,1.85,5.709,3.01,8.577H42.738z"></path><path d="M50,69.042c-4.933,0-9.246,4.523-11.257,11.803l3.969,1.097c1.474-5.335,4.334-8.782,7.288-8.782    c2.955,0,5.816,3.447,7.288,8.782l3.969-1.097C59.248,73.565,54.935,69.042,50,69.042z"></path></g></g></svg>